<svg width="24" height="24" viewBox="0 0 24 24" fill="none" xmlns="http://www.w3.org/2000/svg">
<g opacity="0.8">
<path d="M14.0849 21.7209C18.7989 20.7563 22.3449 16.5853 22.3449 11.5862C22.3449 5.87293 17.7134 1.24139 12.0001 1.24139C6.28681 1.24139 1.65527 5.87293 1.65527 11.5862C1.65527 16.5347 5.12977 20.6716 9.77228 21.6906V14.2154H7.44838V11.1395H9.77228V8.51219C9.77228 6.44766 11.145 4.55174 14.3081 4.55174C15.5888 4.55174 16.5358 4.67108 16.5358 4.67108L16.4612 7.54351C16.4612 7.54351 15.4954 7.53437 14.4414 7.53437C13.3008 7.53437 13.118 8.04535 13.118 8.89345V11.1395H16.5518L16.4024 14.2154H13.118V21.8713C13.4452 21.8362 13.7677 21.7858 14.0849 21.7209Z" fill="white"/>
</g>
</svg>
