<svg width="24" height="24" viewBox="0 0 24 24" fill="none" xmlns="http://www.w3.org/2000/svg">
<g opacity="0.8">
<path fill-rule="evenodd" clip-rule="evenodd" d="M22.3449 11.5862C22.3449 17.2992 17.713 21.931 12.0001 21.931C6.28717 21.931 1.65527 17.2992 1.65527 11.5862C1.65527 5.87329 6.28717 1.24139 12.0001 1.24139C17.713 1.24139 22.3449 5.87329 22.3449 11.5862ZM12.3708 8.87846C11.3648 9.29657 9.35355 10.1629 6.33803 11.4767C5.84838 11.6716 5.59148 11.8621 5.5682 12.0483C5.52855 12.3638 5.92338 12.4879 6.45958 12.656C6.53286 12.6793 6.60872 12.7026 6.68631 12.7285C7.21476 12.9 7.9251 13.1009 8.29407 13.1086C8.62941 13.1155 9.00355 12.9776 9.41648 12.6948C12.2337 10.7923 13.688 9.83105 13.7794 9.81036C13.8441 9.7957 13.9337 9.77674 13.9941 9.83105C14.0544 9.8845 14.0484 9.98622 14.0423 10.0138C14.0027 10.1802 12.4561 11.619 11.6544 12.3638C11.4044 12.5957 11.2277 12.7604 11.1915 12.7983C11.1104 12.8819 11.0277 12.9621 10.9484 13.0388C10.457 13.5112 10.0898 13.8664 10.9691 14.4457C11.3915 14.7242 11.7294 14.9543 12.0665 15.1836C12.4346 15.4345 12.8018 15.6845 13.2777 15.9966C13.3984 16.0759 13.5139 16.1578 13.6268 16.2379C14.0553 16.544 14.4406 16.8181 14.9165 16.775C15.1923 16.7492 15.4785 16.4897 15.6234 15.7147C15.9656 13.8819 16.6398 9.91295 16.7958 8.27674C16.8053 8.14089 16.7995 8.0044 16.7785 7.86984C16.766 7.76116 16.7131 7.66116 16.6303 7.58967C16.507 7.48881 16.3156 7.46726 16.2294 7.46898C15.8406 7.47588 15.2441 7.68364 12.3708 8.87846Z" fill="white"/>
</g>
</svg>
