<svg width="72" height="72" viewBox="0 0 72 72" fill="none" xmlns="http://www.w3.org/2000/svg">
<g opacity="0.9">
<path d="M32.5 50.1C22.4509 50.1 12.8029 50.1 7.59079 50.1C5.38165 50.1 3.59766 48.3091 3.59766 46.1V14.5C3.59766 12.2909 5.36354 10.5 7.57268 10.5C18.2422 10.5 47.5941 10.5 60.8104 10.5C63.0196 10.5 64.7977 12.2909 64.7977 14.5V25.5" stroke="white" stroke-width="2"/>
<path d="M20.9362 58.5243C20.4292 58.7435 20.196 59.3321 20.4151 59.839C20.6343 60.346 21.2229 60.5792 21.7299 60.3601L20.9362 58.5243ZM32.3458 55.5547C30.0094 55.5547 27.1275 56.3219 24.9037 57.0478C23.776 57.4159 22.7876 57.7837 22.0808 58.0594C21.7271 58.1974 21.4431 58.3127 21.2466 58.3939C21.1483 58.4345 21.0718 58.4666 21.0193 58.4888C20.9931 58.4999 20.9729 58.5086 20.9589 58.5145C20.9519 58.5175 20.9465 58.5198 20.9427 58.5215C20.9408 58.5223 20.9393 58.5229 20.9382 58.5234C20.9377 58.5237 20.9372 58.5238 20.9369 58.524C20.9367 58.5241 20.9365 58.5241 20.9364 58.5242C20.9363 58.5243 20.9362 58.5243 21.333 59.4422C21.7299 60.3601 21.7298 60.3601 21.7297 60.3601C21.7297 60.3601 21.7297 60.3601 21.7297 60.3601C21.7298 60.3601 21.73 60.36 21.7302 60.3599C21.7307 60.3597 21.7317 60.3593 21.733 60.3587C21.7356 60.3576 21.7399 60.3558 21.7457 60.3533C21.7573 60.3483 21.7751 60.3407 21.7988 60.3307C21.8463 60.3106 21.9175 60.2807 22.0103 60.2423C22.196 60.1656 22.4676 60.0553 22.8077 59.9226C23.4886 59.657 24.4407 59.3028 25.5244 58.9491C27.7234 58.2312 30.348 57.5547 32.3458 57.5547V55.5547Z" fill="white"/>
<path d="M55 60H35.3945C33.7377 60 32.3945 58.6569 32.3945 57V22.5C32.3945 20.8431 33.7377 19.5 35.3945 19.5H61.7945C63.4514 19.5 64.7945 20.8431 64.7945 22.5V29" stroke="white" stroke-width="2"/>
<path d="M46.1211 52.6055H49.2711" stroke="white" stroke-width="2" stroke-linecap="round"/>
<path d="M53.7188 32.0273C53.7188 30.3705 55.0619 29.0273 56.7187 29.0273H66.3988C68.0556 29.0273 69.3988 30.3705 69.3988 32.0273V57.3773C69.3988 59.0342 68.0556 60.3773 66.3988 60.3773H56.7188C55.0619 60.3773 53.7188 59.0342 53.7188 57.3773V32.0273Z" stroke="white" stroke-width="2"/>
<path d="M60.4395 54.668H62.6795" stroke="white" stroke-width="2" stroke-linecap="round"/>
</g>
</svg>
