<svg width="72" height="72" viewBox="0 0 72 72" fill="none" xmlns="http://www.w3.org/2000/svg">
<path opacity="0.9" d="M59.04 36V60.8C59.04 63.0091 57.2491 64.8 55.04 64.8H16.96C14.7508 64.8 12.96 63.0091 12.96 60.8V36M36 64.8V21.6M36 21.6H23.04C21.1304 21.6 19.299 20.8414 17.9488 19.4912C16.5985 18.1409 15.84 16.3096 15.84 14.4C15.84 12.4904 16.5985 10.6591 17.9488 9.30883C19.299 7.95857 21.1304 7.2 23.04 7.2C33.12 7.2 36 21.6 36 21.6ZM36 21.6H48.96C50.8695 21.6 52.7009 20.8414 54.0511 19.4912C55.4014 18.1409 56.16 16.3096 56.16 14.4C56.16 12.4904 55.4014 10.6591 54.0511 9.30883C52.7009 7.95857 50.8695 7.2 48.96 7.2C38.88 7.2 36 21.6 36 21.6ZM11.2 36H60.8C63.0091 36 64.8 34.2091 64.8 32V25.6C64.8 23.3909 63.0091 21.6 60.7999 21.6H11.2C8.99081 21.6 7.19995 23.3909 7.19995 25.6V32C7.19995 34.2091 8.99081 36 11.2 36Z" stroke="white" stroke-width="2" stroke-linecap="round" stroke-linejoin="round"/>
</svg>
