<svg width="72" height="72" viewBox="0 0 72 72" fill="none" xmlns="http://www.w3.org/2000/svg">
<g opacity="0.9">
<path d="M37.7811 6.07178L37.8501 5.07416L36.4947 4.98034L36.8081 6.30241L37.7811 6.07178ZM63.5991 25.4916L63.9442 26.4302L64.8814 26.0857L64.5382 25.1479L63.5991 25.4916ZM37.9469 6.7712L36.9738 7.00183V7.00184L37.9469 6.7712ZM38.4332 7.67711L39.1631 6.99352V6.99352L38.4332 7.67711ZM39.491 8.8065L38.7611 9.49008L39.491 8.8065ZM39.9106 10.8577L38.971 10.5157V10.5157L39.9106 10.8577ZM39.4806 12.0394L40.4202 12.3814V12.3814L39.4806 12.0394ZM40.6759 14.6028L40.3339 15.5425L40.6759 14.6028ZM41.4835 14.8967L41.8255 13.957L41.8255 13.957L41.4835 14.8967ZM42.7879 16.9902L41.7937 16.8831V16.8831L42.7879 16.9902ZM42.3944 20.646L41.4001 20.539V20.539L42.3944 20.646ZM42.9231 22.2273L43.653 21.5437L43.653 21.5437L42.9231 22.2273ZM46.0581 25.5745L45.3282 26.2581L45.3282 26.2581L46.0581 25.5745ZM47.9099 26.1685L48.106 27.1491V27.1491L47.9099 26.1685ZM54.9418 24.7626L55.1379 25.7432H55.1379L54.9418 24.7626ZM55.6309 24.746L55.7794 23.7571L55.7794 23.7571L55.6309 24.746ZM62.2217 25.7358L62.3702 24.7469L62.2217 25.7358ZM63.2089 25.6351L62.8638 24.6965L62.8638 24.6965L63.2089 25.6351ZM19.203 60.4007L18.6468 61.2318L19.1826 61.5903L19.7303 61.2504L19.203 60.4007ZM21.4498 9.63558L22.1311 8.90359L21.6026 8.41162L20.9693 8.75858L21.4498 9.63558ZM23.6769 11.7084L22.9956 12.4404V12.4404L23.6769 11.7084ZM24.0761 12.226L24.9571 11.7527V11.7527L24.0761 12.226ZM25.5148 14.9041L24.6339 15.3774L24.6643 15.4341L24.7018 15.4864L25.5148 14.9041ZM28.3317 18.8369L29.1447 18.2546L29.1447 18.2546L28.3317 18.8369ZM28.8228 24.1411L27.8814 24.4783L27.8814 24.4783L28.8228 24.1411ZM29.7563 26.7476L28.8148 27.0847V27.0847L29.7563 26.7476ZM28.9279 29.1213L29.4551 29.971H29.4551L28.9279 29.1213ZM25.6803 31.1364L26.2076 31.9861L26.2076 31.9861L25.6803 31.1364ZM25.3722 31.3719L24.6909 30.6399L24.6909 30.6399L25.3722 31.3719ZM22.3239 34.2091L23.0052 34.9411L22.3239 34.2091ZM18.4187 37.844L17.7374 37.112L17.7374 37.112L18.4187 37.844ZM17.8498 39.8267L18.8156 39.5673L17.8498 39.8267ZM18.9841 44.0499L18.0184 44.3093L18.0184 44.3093L18.9841 44.0499ZM19.553 44.9951L20.2344 44.2631H20.2344L19.553 44.9951ZM21.9677 47.2426L22.649 46.5106H22.649L21.9677 47.2426ZM22.488 48.0323L21.5465 48.3694L21.5465 48.3694L22.488 48.0323ZM23.9194 52.0291L24.8608 51.692L23.9194 52.0291ZM24.9699 54.9626L25.9113 54.6254L24.9699 54.9626ZM24.1415 57.3363L24.6688 58.186H24.6688L24.1415 57.3363ZM34.332 39.6331L35.0047 40.373L34.332 39.6331ZM37.8305 36.4527L38.5031 37.1926V37.1926L37.8305 36.4527ZM34.0646 42.2957L34.871 41.7043L34.0646 42.2957ZM36.2879 45.3275L35.4815 45.9188V45.9188L36.2879 45.3275ZM36.6508 46.8207L35.6629 46.6654L36.6508 46.8207ZM35.9155 51.5L36.9034 51.6552V51.6552L35.9155 51.5ZM36.0135 52.499L35.0746 52.8432L35.0746 52.8432L36.0135 52.499ZM36.0775 52.6736L37.0164 52.3294V52.3294L36.0775 52.6736ZM38.6813 53.8487L38.3183 52.9169L38.6813 53.8487ZM42.8023 52.2431L43.1653 53.1749L43.1653 53.1749L42.8023 52.2431ZM43.7454 51.4813L42.9108 50.9304V50.9304L43.7454 51.4813ZM46.1347 47.8612L46.9693 48.412L46.1347 47.8612ZM46.3487 47.5908L45.6211 46.9048L45.6211 46.9048L46.3487 47.5908ZM50.2928 43.4077L51.0203 44.0938H51.0204L50.2928 43.4077ZM49.9643 40.3833L50.5276 39.557L50.5276 39.557L49.9643 40.3833ZM48.12 39.1258L48.6833 38.2996L48.6612 38.2845L48.6383 38.2706L48.12 39.1258ZM45.5622 37.5757L45.0439 38.4309L45.5622 37.5757ZM44.9689 37.3358L45.1905 36.3607L45.1905 36.3607L44.9689 37.3358ZM41.505 36.5485L41.215 37.5056L41.2489 37.5158L41.2834 37.5237L41.505 36.5485ZM39.7558 36.0185L39.4658 36.9755H39.4658L39.7558 36.0185ZM37.712 7.06939C49.2154 7.86563 58.8564 15.4431 62.66 25.8354L64.5382 25.1479C60.4704 14.0339 50.1609 5.92629 37.8501 5.07416L37.712 7.06939ZM36.8081 6.30241L36.9738 7.00183L38.9199 6.54056L38.7541 5.84114L36.8081 6.30241ZM36.9738 7.00184C37.0944 7.51063 37.3459 7.97906 37.7034 8.3607L39.1631 6.99352C39.0439 6.86631 38.9601 6.71016 38.9199 6.54056L36.9738 7.00184ZM37.7034 8.3607L38.7611 9.49008L40.2209 8.12291L39.1631 6.99352L37.7034 8.3607ZM38.7611 9.49008C39.0187 9.76511 39.0998 10.1616 38.971 10.5157L40.8503 11.1997C41.237 10.1374 40.9936 8.948 40.2209 8.12291L38.7611 9.49008ZM38.971 10.5157L38.5409 11.6974L40.4202 12.3814L40.8503 11.1997L38.971 10.5157ZM38.5409 11.6974C37.9742 13.2543 38.7769 14.9758 40.3339 15.5425L41.0179 13.6631C40.4989 13.4742 40.2314 12.9004 40.4202 12.3814L38.5409 11.6974ZM40.3339 15.5425L41.1414 15.8364L41.8255 13.957L41.0179 13.6631L40.3339 15.5425ZM41.1414 15.8364C41.5737 15.9938 41.8429 16.4257 41.7937 16.8831L43.7822 17.0972C43.9299 15.725 43.1224 14.4291 41.8255 13.957L41.1414 15.8364ZM41.7937 16.8831L41.4001 20.539L43.3886 20.753L43.7822 17.0972L41.7937 16.8831ZM41.4001 20.539C41.3066 21.4074 41.5962 22.2734 42.1933 22.9108L43.653 21.5437C43.454 21.3312 43.3575 21.0425 43.3886 20.753L41.4001 20.539ZM42.1933 22.9108L45.3282 26.2581L46.788 24.8909L43.653 21.5437L42.1933 22.9108ZM45.3282 26.2581C46.0377 27.0155 47.0883 27.3525 48.106 27.1491L47.7139 25.1879C47.3746 25.2557 47.0244 25.1434 46.788 24.8909L45.3282 26.2581ZM48.106 27.1491L55.1379 25.7432L54.7458 23.782L47.7139 25.1879L48.106 27.1491ZM55.1379 25.7432C55.2514 25.7205 55.3679 25.7177 55.4824 25.7349L55.7794 23.7571C55.436 23.7055 55.0863 23.714 54.7458 23.782L55.1379 25.7432ZM55.4824 25.7349L62.0732 26.7247L62.3702 24.7469L55.7794 23.7571L55.4824 25.7349ZM62.0732 26.7247C62.5716 26.7995 63.0809 26.7476 63.5539 26.5737L62.8638 24.6965C62.7061 24.7545 62.5364 24.7718 62.3702 24.7469L62.0732 26.7247ZM63.5539 26.5737L63.9442 26.4302L63.254 24.5531L62.8638 24.6965L63.5539 26.5737ZM19.7592 59.5696C12.0635 54.4197 7 45.651 7 35.7H5C5 46.3464 10.4201 55.7264 18.6468 61.2318L19.7592 59.5696ZM7 35.7C7 24.8408 13.0307 15.3886 21.9303 10.5126L20.9693 8.75858C11.4548 13.9715 5 24.0812 5 35.7H7ZM24.3582 10.9765L22.1311 8.90359L20.7685 10.3676L22.9956 12.4404L24.3582 10.9765ZM24.9571 11.7527C24.8014 11.4629 24.599 11.2006 24.3582 10.9765L22.9956 12.4404C23.0758 12.5152 23.1433 12.6026 23.1952 12.6992L24.9571 11.7527ZM26.3958 14.4309L24.9571 11.7527L23.1952 12.6992L24.6339 15.3774L26.3958 14.4309ZM29.1447 18.2546L26.3278 14.3218L24.7018 15.4864L27.5187 19.4192L29.1447 18.2546ZM29.7057 20.0015C29.7057 19.3749 29.5095 18.764 29.1447 18.2546L27.5187 19.4192C27.6403 19.589 27.7057 19.7926 27.7057 20.0015H29.7057ZM29.7057 23.4668V20.0015H27.7057V23.4668H29.7057ZM29.7643 23.804C29.7255 23.6958 29.7057 23.5817 29.7057 23.4668H27.7057C27.7057 23.8116 27.7651 24.1537 27.8814 24.4783L29.7643 23.804ZM30.6977 26.4104L29.7643 23.804L27.8814 24.4783L28.8148 27.0847L30.6977 26.4104ZM29.4551 29.971C30.6568 29.2254 31.1745 27.7418 30.6977 26.4104L28.8148 27.0847C28.9737 27.5285 28.8012 28.023 28.4006 28.2716L29.4551 29.971ZM26.2076 31.9861L29.4551 29.971L28.4006 28.2716L25.1531 30.2867L26.2076 31.9861ZM26.0535 32.1039C26.101 32.0597 26.1526 32.0203 26.2076 31.9861L25.1531 30.2867C24.9879 30.3892 24.8332 30.5075 24.6909 30.6399L26.0535 32.1039ZM23.0052 34.9411L26.0535 32.1039L24.6909 30.6399L21.6426 33.4771L23.0052 34.9411ZM19.1 38.576L23.0052 34.9411L21.6426 33.4771L17.7374 37.112L19.1 38.576ZM18.8156 39.5673C18.7195 39.2097 18.829 38.8283 19.1 38.576L17.7374 37.112C16.9242 37.8689 16.5959 39.0132 16.884 40.0861L18.8156 39.5673ZM19.9499 43.7905L18.8156 39.5673L16.884 40.0861L18.0184 44.3093L19.9499 43.7905ZM20.2344 44.2631C20.0971 44.1354 19.9985 43.9716 19.9499 43.7905L18.0184 44.3093C18.1643 44.8526 18.46 45.3439 18.8717 45.7271L20.2344 44.2631ZM22.649 46.5106L20.2344 44.2631L18.8717 45.7271L21.2864 47.9746L22.649 46.5106ZM23.4294 47.6951C23.2677 47.2436 23.0001 46.8374 22.649 46.5106L21.2864 47.9746C21.4034 48.0835 21.4926 48.2189 21.5465 48.3694L23.4294 47.6951ZM24.8608 51.692L23.4294 47.6951L21.5465 48.3694L22.9779 52.3663L24.8608 51.692ZM25.9113 54.6254L24.8608 51.692L22.9779 52.3663L24.0284 55.2997L25.9113 54.6254ZM24.6688 58.186C25.8704 57.4404 26.3881 55.9568 25.9113 54.6254L24.0284 55.2997C24.1874 55.7435 24.0148 56.238 23.6143 56.4866L24.6688 58.186ZM19.7303 61.2504L24.6688 58.186L23.6143 56.4866L18.6758 59.551L19.7303 61.2504ZM35.0047 40.373L38.5031 37.1926L37.1578 35.7127L33.6594 38.8931L35.0047 40.373ZM34.871 41.7043C34.5684 41.2917 34.6261 40.7172 35.0047 40.373L33.6594 38.8931C32.5235 39.9257 32.3504 41.6492 33.2582 42.887L34.871 41.7043ZM37.0943 44.7361L34.871 41.7043L33.2582 42.887L35.4815 45.9188L37.0943 44.7361ZM37.6387 46.9759C37.7627 46.1866 37.5668 45.3804 37.0943 44.7361L35.4815 45.9188C35.639 46.1336 35.7043 46.4023 35.6629 46.6654L37.6387 46.9759ZM36.9034 51.6552L37.6387 46.9759L35.6629 46.6654L34.9276 51.3448L36.9034 51.6552ZM36.9524 52.1547C36.8938 51.9951 36.877 51.8232 36.9034 51.6552L34.9276 51.3447C34.8484 51.8486 34.899 52.3644 35.0746 52.8432L36.9524 52.1547ZM37.0164 52.3294L36.9524 52.1547L35.0746 52.8432L35.1387 53.0179L37.0164 52.3294ZM38.3183 52.9169C37.7964 53.1203 37.2092 52.8553 37.0164 52.3294L35.1387 53.0179C35.7171 54.5956 37.4786 55.3905 39.0444 54.7805L38.3183 52.9169ZM42.4392 51.3114L38.3183 52.9169L39.0444 54.7805L43.1653 53.1749L42.4392 51.3114ZM42.9108 50.9304C42.7968 51.1031 42.632 51.2362 42.4392 51.3114L43.1653 53.1749C43.7438 52.9495 44.238 52.5502 44.58 52.0321L42.9108 50.9304ZM45.3001 47.3103L42.9108 50.9304L44.58 52.0321L46.9693 48.412L45.3001 47.3103ZM45.6211 46.9048C45.5026 47.0305 45.3952 47.1662 45.3001 47.3103L46.9693 48.412C47.001 48.364 47.0368 48.3187 47.0763 48.2768L45.6211 46.9048ZM49.5652 42.7217L45.6211 46.9048L47.0763 48.2768L51.0203 44.0938L49.5652 42.7217ZM49.4009 41.2095C49.9089 41.5559 49.987 42.2744 49.5652 42.7217L51.0204 44.0938C52.2858 42.7516 52.0517 40.5962 50.5276 39.557L49.4009 41.2095ZM47.5567 39.952L49.4009 41.2095L50.5276 39.557L48.6833 38.2996L47.5567 39.952ZM45.0439 38.4309L47.6017 39.981L48.6383 38.2706L46.0805 36.7205L45.0439 38.4309ZM44.7472 38.3109C44.8519 38.3347 44.9521 38.3752 45.0439 38.4309L46.0805 36.7205C45.8051 36.5535 45.5046 36.432 45.1905 36.3607L44.7472 38.3109ZM41.2834 37.5237L44.7473 38.3109L45.1905 36.3607L41.7266 35.5734L41.2834 37.5237ZM39.4658 36.9755L41.215 37.5056L41.795 35.5915L40.0458 35.0615L39.4658 36.9755ZM38.5031 37.1926C38.7635 36.9559 39.1291 36.8735 39.4658 36.9755L40.0458 35.0615C39.0356 34.7553 37.9389 35.0027 37.1578 35.7127L38.5031 37.1926Z" fill="white"/>
<circle cx="35.7" cy="35.7" r="29.7" stroke="white" stroke-width="2"/>
</g>
</svg>
